<mxfile host="app.diagrams.net" modified="2022-04-13T14:46:12.137Z" agent="5.0 (Windows NT 10.0; Win64; x64) AppleWebKit/537.36 (KHTML, like Gecko) Chrome/100.0.4896.75 Safari/537.36" etag="januVIx-qetQlRCF63_C" version="17.4.3" type="github">
  <diagram id="VpU9Q-NItrr0VBAvWaQs" name="Page-1">
    <mxGraphModel dx="868" dy="450" grid="1" gridSize="10" guides="1" tooltips="1" connect="1" arrows="1" fold="1" page="1" pageScale="1" pageWidth="850" pageHeight="1100" math="0" shadow="0">
      <root>
        <mxCell id="0" />
        <mxCell id="1" parent="0" />
        <mxCell id="IynYQnoSh6YkQn9j_BnH-1" value="" style="endArrow=none;html=1;rounded=0;" edge="1" parent="1">
          <mxGeometry width="50" height="50" relative="1" as="geometry">
            <mxPoint x="280" y="510" as="sourcePoint" />
            <mxPoint x="280" y="80" as="targetPoint" />
          </mxGeometry>
        </mxCell>
        <mxCell id="IynYQnoSh6YkQn9j_BnH-2" value="" style="endArrow=none;html=1;rounded=0;" edge="1" parent="1">
          <mxGeometry width="50" height="50" relative="1" as="geometry">
            <mxPoint x="440" y="510" as="sourcePoint" />
            <mxPoint x="440" y="80" as="targetPoint" />
          </mxGeometry>
        </mxCell>
        <mxCell id="IynYQnoSh6YkQn9j_BnH-3" value="Corrente quente" style="text;html=1;strokeColor=none;fillColor=none;align=center;verticalAlign=middle;whiteSpace=wrap;rounded=0;" vertex="1" parent="1">
          <mxGeometry x="250" y="40" width="60" height="30" as="geometry" />
        </mxCell>
        <mxCell id="IynYQnoSh6YkQn9j_BnH-4" value="Corrente fria" style="text;html=1;strokeColor=none;fillColor=none;align=center;verticalAlign=middle;whiteSpace=wrap;rounded=0;" vertex="1" parent="1">
          <mxGeometry x="410" y="40" width="60" height="30" as="geometry" />
        </mxCell>
        <mxCell id="IynYQnoSh6YkQn9j_BnH-6" value="248,89°C" style="text;html=1;strokeColor=none;fillColor=none;align=center;verticalAlign=middle;whiteSpace=wrap;rounded=0;" vertex="1" parent="1">
          <mxGeometry x="280" y="160" width="60" height="30" as="geometry" />
        </mxCell>
        <mxCell id="IynYQnoSh6YkQn9j_BnH-7" value="160°C" style="text;html=1;strokeColor=none;fillColor=none;align=center;verticalAlign=middle;whiteSpace=wrap;rounded=0;" vertex="1" parent="1">
          <mxGeometry x="270" y="270" width="60" height="30" as="geometry" />
        </mxCell>
        <mxCell id="IynYQnoSh6YkQn9j_BnH-8" value="137,78°C" style="text;html=1;strokeColor=none;fillColor=none;align=center;verticalAlign=middle;whiteSpace=wrap;rounded=0;" vertex="1" parent="1">
          <mxGeometry x="280" y="330" width="60" height="30" as="geometry" />
        </mxCell>
        <mxCell id="IynYQnoSh6YkQn9j_BnH-9" value="93,33°C" style="text;html=1;strokeColor=none;fillColor=none;align=center;verticalAlign=middle;whiteSpace=wrap;rounded=0;" vertex="1" parent="1">
          <mxGeometry x="280" y="440" width="60" height="30" as="geometry" />
        </mxCell>
        <mxCell id="IynYQnoSh6YkQn9j_BnH-10" value="60°C" style="text;html=1;strokeColor=none;fillColor=none;align=center;verticalAlign=middle;whiteSpace=wrap;rounded=0;" vertex="1" parent="1">
          <mxGeometry x="390" y="490" width="60" height="30" as="geometry" />
        </mxCell>
        <mxCell id="IynYQnoSh6YkQn9j_BnH-11" value="70°C" style="text;html=1;strokeColor=none;fillColor=none;align=center;verticalAlign=middle;whiteSpace=wrap;rounded=0;" vertex="1" parent="1">
          <mxGeometry x="270" y="490" width="60" height="30" as="geometry" />
        </mxCell>
        <mxCell id="IynYQnoSh6YkQn9j_BnH-12" value="" style="endArrow=none;html=1;rounded=0;" edge="1" parent="1">
          <mxGeometry width="50" height="50" relative="1" as="geometry">
            <mxPoint x="100" y="510" as="sourcePoint" />
            <mxPoint x="280" y="510" as="targetPoint" />
          </mxGeometry>
        </mxCell>
        <mxCell id="IynYQnoSh6YkQn9j_BnH-13" value="" style="endArrow=none;html=1;rounded=0;" edge="1" parent="1">
          <mxGeometry width="50" height="50" relative="1" as="geometry">
            <mxPoint x="440" y="510" as="sourcePoint" />
            <mxPoint x="620" y="510" as="targetPoint" />
          </mxGeometry>
        </mxCell>
        <mxCell id="IynYQnoSh6YkQn9j_BnH-14" value="" style="endArrow=none;html=1;rounded=0;" edge="1" parent="1">
          <mxGeometry width="50" height="50" relative="1" as="geometry">
            <mxPoint x="440" y="454.5" as="sourcePoint" />
            <mxPoint x="620" y="454.5" as="targetPoint" />
          </mxGeometry>
        </mxCell>
        <mxCell id="IynYQnoSh6YkQn9j_BnH-15" value="" style="endArrow=none;html=1;rounded=0;" edge="1" parent="1">
          <mxGeometry width="50" height="50" relative="1" as="geometry">
            <mxPoint x="100" y="454.5" as="sourcePoint" />
            <mxPoint x="280" y="454.5" as="targetPoint" />
          </mxGeometry>
        </mxCell>
        <mxCell id="IynYQnoSh6YkQn9j_BnH-16" value="83,33°C" style="text;html=1;strokeColor=none;fillColor=none;align=center;verticalAlign=middle;whiteSpace=wrap;rounded=0;" vertex="1" parent="1">
          <mxGeometry x="380" y="440" width="60" height="30" as="geometry" />
        </mxCell>
        <mxCell id="IynYQnoSh6YkQn9j_BnH-17" value="115,56°C" style="text;html=1;strokeColor=none;fillColor=none;align=center;verticalAlign=middle;whiteSpace=wrap;rounded=0;" vertex="1" parent="1">
          <mxGeometry x="380" y="380" width="60" height="30" as="geometry" />
        </mxCell>
        <mxCell id="IynYQnoSh6YkQn9j_BnH-18" value="" style="endArrow=none;html=1;rounded=0;" edge="1" parent="1">
          <mxGeometry width="50" height="50" relative="1" as="geometry">
            <mxPoint x="440" y="394.5" as="sourcePoint" />
            <mxPoint x="620" y="394.5" as="targetPoint" />
          </mxGeometry>
        </mxCell>
        <mxCell id="IynYQnoSh6YkQn9j_BnH-19" value="" style="endArrow=none;html=1;rounded=0;" edge="1" parent="1">
          <mxGeometry width="50" height="50" relative="1" as="geometry">
            <mxPoint x="100" y="394.5" as="sourcePoint" />
            <mxPoint x="280" y="394.5" as="targetPoint" />
          </mxGeometry>
        </mxCell>
        <mxCell id="IynYQnoSh6YkQn9j_BnH-20" value="125,56°C" style="text;html=1;strokeColor=none;fillColor=none;align=center;verticalAlign=middle;whiteSpace=wrap;rounded=0;" vertex="1" parent="1">
          <mxGeometry x="280" y="380" width="60" height="30" as="geometry" />
        </mxCell>
        <mxCell id="IynYQnoSh6YkQn9j_BnH-21" value="" style="endArrow=none;html=1;rounded=0;" edge="1" parent="1">
          <mxGeometry width="50" height="50" relative="1" as="geometry">
            <mxPoint x="440" y="350" as="sourcePoint" />
            <mxPoint x="620" y="350" as="targetPoint" />
          </mxGeometry>
        </mxCell>
        <mxCell id="IynYQnoSh6YkQn9j_BnH-22" value="" style="endArrow=none;html=1;rounded=0;" edge="1" parent="1">
          <mxGeometry width="50" height="50" relative="1" as="geometry">
            <mxPoint x="100" y="350" as="sourcePoint" />
            <mxPoint x="280" y="350" as="targetPoint" />
          </mxGeometry>
        </mxCell>
        <mxCell id="IynYQnoSh6YkQn9j_BnH-23" value="127,78°C" style="text;html=1;strokeColor=none;fillColor=none;align=center;verticalAlign=middle;whiteSpace=wrap;rounded=0;" vertex="1" parent="1">
          <mxGeometry x="380" y="330" width="60" height="30" as="geometry" />
        </mxCell>
        <mxCell id="IynYQnoSh6YkQn9j_BnH-24" value="" style="endArrow=none;html=1;rounded=0;" edge="1" parent="1">
          <mxGeometry width="50" height="50" relative="1" as="geometry">
            <mxPoint x="100" y="284.5" as="sourcePoint" />
            <mxPoint x="280" y="284.5" as="targetPoint" />
          </mxGeometry>
        </mxCell>
        <mxCell id="IynYQnoSh6YkQn9j_BnH-25" value="" style="endArrow=none;html=1;rounded=0;" edge="1" parent="1">
          <mxGeometry width="50" height="50" relative="1" as="geometry">
            <mxPoint x="440" y="284.5" as="sourcePoint" />
            <mxPoint x="620" y="284.5" as="targetPoint" />
          </mxGeometry>
        </mxCell>
        <mxCell id="IynYQnoSh6YkQn9j_BnH-26" value="150°C" style="text;html=1;strokeColor=none;fillColor=none;align=center;verticalAlign=middle;whiteSpace=wrap;rounded=0;" vertex="1" parent="1">
          <mxGeometry x="380" y="270" width="60" height="30" as="geometry" />
        </mxCell>
        <mxCell id="IynYQnoSh6YkQn9j_BnH-27" value="160°C" style="text;html=1;strokeColor=none;fillColor=none;align=center;verticalAlign=middle;whiteSpace=wrap;rounded=0;" vertex="1" parent="1">
          <mxGeometry x="380" y="230" width="60" height="30" as="geometry" />
        </mxCell>
        <mxCell id="IynYQnoSh6YkQn9j_BnH-28" value="" style="endArrow=none;html=1;rounded=0;" edge="1" parent="1">
          <mxGeometry width="50" height="50" relative="1" as="geometry">
            <mxPoint x="440" y="244.5" as="sourcePoint" />
            <mxPoint x="620" y="244.5" as="targetPoint" />
          </mxGeometry>
        </mxCell>
        <mxCell id="IynYQnoSh6YkQn9j_BnH-29" value="170°C" style="text;html=1;strokeColor=none;fillColor=none;align=center;verticalAlign=middle;whiteSpace=wrap;rounded=0;" vertex="1" parent="1">
          <mxGeometry x="270" y="230" width="60" height="30" as="geometry" />
        </mxCell>
        <mxCell id="IynYQnoSh6YkQn9j_BnH-30" value="" style="endArrow=none;html=1;rounded=0;" edge="1" parent="1">
          <mxGeometry width="50" height="50" relative="1" as="geometry">
            <mxPoint x="100" y="244.5" as="sourcePoint" />
            <mxPoint x="280" y="244.5" as="targetPoint" />
          </mxGeometry>
        </mxCell>
        <mxCell id="IynYQnoSh6YkQn9j_BnH-31" value="" style="endArrow=none;html=1;rounded=0;" edge="1" parent="1">
          <mxGeometry width="50" height="50" relative="1" as="geometry">
            <mxPoint x="440" y="174.5" as="sourcePoint" />
            <mxPoint x="620" y="174.5" as="targetPoint" />
          </mxGeometry>
        </mxCell>
        <mxCell id="IynYQnoSh6YkQn9j_BnH-32" value="" style="endArrow=none;html=1;rounded=0;" edge="1" parent="1">
          <mxGeometry width="50" height="50" relative="1" as="geometry">
            <mxPoint x="100" y="174.5" as="sourcePoint" />
            <mxPoint x="280" y="174.5" as="targetPoint" />
          </mxGeometry>
        </mxCell>
        <mxCell id="IynYQnoSh6YkQn9j_BnH-33" value="238,89°C" style="text;html=1;strokeColor=none;fillColor=none;align=center;verticalAlign=middle;whiteSpace=wrap;rounded=0;" vertex="1" parent="1">
          <mxGeometry x="380" y="160" width="60" height="30" as="geometry" />
        </mxCell>
        <mxCell id="IynYQnoSh6YkQn9j_BnH-34" value="" style="endArrow=none;dashed=1;html=1;rounded=0;" edge="1" parent="1">
          <mxGeometry width="50" height="50" relative="1" as="geometry">
            <mxPoint x="100" y="240" as="sourcePoint" />
            <mxPoint x="100" y="180" as="targetPoint" />
          </mxGeometry>
        </mxCell>
        <mxCell id="IynYQnoSh6YkQn9j_BnH-35" value="" style="endArrow=none;dashed=1;html=1;rounded=0;" edge="1" parent="1">
          <mxGeometry width="50" height="50" relative="1" as="geometry">
            <mxPoint x="100" y="280" as="sourcePoint" />
            <mxPoint x="100" y="250" as="targetPoint" />
          </mxGeometry>
        </mxCell>
        <mxCell id="IynYQnoSh6YkQn9j_BnH-36" value="" style="endArrow=none;dashed=1;html=1;rounded=0;" edge="1" parent="1">
          <mxGeometry width="50" height="50" relative="1" as="geometry">
            <mxPoint x="100" y="350" as="sourcePoint" />
            <mxPoint x="100" y="290" as="targetPoint" />
          </mxGeometry>
        </mxCell>
        <mxCell id="IynYQnoSh6YkQn9j_BnH-37" value="" style="endArrow=none;dashed=1;html=1;rounded=0;" edge="1" parent="1">
          <mxGeometry width="50" height="50" relative="1" as="geometry">
            <mxPoint x="100" y="390" as="sourcePoint" />
            <mxPoint x="100" y="350" as="targetPoint" />
          </mxGeometry>
        </mxCell>
        <mxCell id="IynYQnoSh6YkQn9j_BnH-38" value="" style="endArrow=none;dashed=1;html=1;rounded=0;" edge="1" parent="1">
          <mxGeometry width="50" height="50" relative="1" as="geometry">
            <mxPoint x="100" y="450" as="sourcePoint" />
            <mxPoint x="100" y="390" as="targetPoint" />
          </mxGeometry>
        </mxCell>
        <mxCell id="IynYQnoSh6YkQn9j_BnH-39" value="" style="endArrow=none;dashed=1;html=1;rounded=0;" edge="1" parent="1">
          <mxGeometry width="50" height="50" relative="1" as="geometry">
            <mxPoint x="100" y="510" as="sourcePoint" />
            <mxPoint x="100" y="450" as="targetPoint" />
          </mxGeometry>
        </mxCell>
        <mxCell id="IynYQnoSh6YkQn9j_BnH-40" value="78,89°C" style="text;html=1;strokeColor=none;fillColor=none;align=center;verticalAlign=middle;whiteSpace=wrap;rounded=0;" vertex="1" parent="1">
          <mxGeometry x="40" y="200" width="60" height="30" as="geometry" />
        </mxCell>
        <mxCell id="IynYQnoSh6YkQn9j_BnH-43" value="10°C" style="text;html=1;strokeColor=none;fillColor=none;align=center;verticalAlign=middle;whiteSpace=wrap;rounded=0;" vertex="1" parent="1">
          <mxGeometry x="40" y="250" width="60" height="30" as="geometry" />
        </mxCell>
        <mxCell id="IynYQnoSh6YkQn9j_BnH-44" value="22,22°C" style="text;html=1;strokeColor=none;fillColor=none;align=center;verticalAlign=middle;whiteSpace=wrap;rounded=0;" vertex="1" parent="1">
          <mxGeometry x="40" y="300" width="60" height="30" as="geometry" />
        </mxCell>
        <mxCell id="IynYQnoSh6YkQn9j_BnH-45" value="12,22°C" style="text;html=1;strokeColor=none;fillColor=none;align=center;verticalAlign=middle;whiteSpace=wrap;rounded=0;" vertex="1" parent="1">
          <mxGeometry x="40" y="360" width="60" height="30" as="geometry" />
        </mxCell>
        <mxCell id="IynYQnoSh6YkQn9j_BnH-46" value="32,23°C" style="text;html=1;strokeColor=none;fillColor=none;align=center;verticalAlign=middle;whiteSpace=wrap;rounded=0;" vertex="1" parent="1">
          <mxGeometry x="40" y="410" width="60" height="30" as="geometry" />
        </mxCell>
        <mxCell id="IynYQnoSh6YkQn9j_BnH-47" value="23,33°C" style="text;html=1;strokeColor=none;fillColor=none;align=center;verticalAlign=middle;whiteSpace=wrap;rounded=0;" vertex="1" parent="1">
          <mxGeometry x="40" y="470" width="60" height="30" as="geometry" />
        </mxCell>
        <mxCell id="IynYQnoSh6YkQn9j_BnH-49" value="" style="endArrow=classic;html=1;rounded=0;fillColor=#e51400;strokeColor=#B20000;" edge="1" parent="1">
          <mxGeometry width="50" height="50" relative="1" as="geometry">
            <mxPoint x="140" y="280" as="sourcePoint" />
            <mxPoint x="140" y="455" as="targetPoint" />
          </mxGeometry>
        </mxCell>
        <mxCell id="IynYQnoSh6YkQn9j_BnH-50" value="" style="endArrow=classic;html=1;rounded=0;fillColor=#e51400;strokeColor=#B20000;" edge="1" parent="1">
          <mxGeometry width="50" height="50" relative="1" as="geometry">
            <mxPoint x="220" y="170" as="sourcePoint" />
            <mxPoint x="220" y="350" as="targetPoint" />
          </mxGeometry>
        </mxCell>
        <mxCell id="IynYQnoSh6YkQn9j_BnH-51" value="" style="endArrow=classic;html=1;rounded=0;fillColor=#0050ef;strokeColor=#001DBC;" edge="1" parent="1">
          <mxGeometry width="50" height="50" relative="1" as="geometry">
            <mxPoint x="480" y="510" as="sourcePoint" />
            <mxPoint x="480" y="240" as="targetPoint" />
          </mxGeometry>
        </mxCell>
        <mxCell id="IynYQnoSh6YkQn9j_BnH-52" value="" style="endArrow=classic;html=1;rounded=0;fillColor=#0050ef;strokeColor=#001DBC;" edge="1" parent="1">
          <mxGeometry width="50" height="50" relative="1" as="geometry">
            <mxPoint x="560" y="400" as="sourcePoint" />
            <mxPoint x="560" y="110" as="targetPoint" />
          </mxGeometry>
        </mxCell>
        <mxCell id="IynYQnoSh6YkQn9j_BnH-53" value="260°C" style="text;html=1;strokeColor=none;fillColor=none;align=center;verticalAlign=middle;whiteSpace=wrap;rounded=0;" vertex="1" parent="1">
          <mxGeometry x="380" y="100" width="60" height="30" as="geometry" />
        </mxCell>
        <mxCell id="IynYQnoSh6YkQn9j_BnH-54" value="270°C" style="text;html=1;strokeColor=none;fillColor=none;align=center;verticalAlign=middle;whiteSpace=wrap;rounded=0;" vertex="1" parent="1">
          <mxGeometry x="270" y="100" width="60" height="30" as="geometry" />
        </mxCell>
        <mxCell id="IynYQnoSh6YkQn9j_BnH-55" value="" style="endArrow=none;html=1;rounded=0;" edge="1" parent="1">
          <mxGeometry width="50" height="50" relative="1" as="geometry">
            <mxPoint x="440" y="114.5" as="sourcePoint" />
            <mxPoint x="620" y="114.5" as="targetPoint" />
          </mxGeometry>
        </mxCell>
        <mxCell id="IynYQnoSh6YkQn9j_BnH-56" value="" style="endArrow=none;html=1;rounded=0;" edge="1" parent="1">
          <mxGeometry width="50" height="50" relative="1" as="geometry">
            <mxPoint x="100" y="114.5" as="sourcePoint" />
            <mxPoint x="280" y="114.5" as="targetPoint" />
          </mxGeometry>
        </mxCell>
        <mxCell id="IynYQnoSh6YkQn9j_BnH-57" value="" style="endArrow=none;dashed=1;html=1;rounded=0;" edge="1" parent="1">
          <mxGeometry width="50" height="50" relative="1" as="geometry">
            <mxPoint x="99" y="170" as="sourcePoint" />
            <mxPoint x="100" y="110" as="targetPoint" />
          </mxGeometry>
        </mxCell>
        <mxCell id="IynYQnoSh6YkQn9j_BnH-58" value="21,11°C" style="text;html=1;strokeColor=none;fillColor=none;align=center;verticalAlign=middle;whiteSpace=wrap;rounded=0;" vertex="1" parent="1">
          <mxGeometry x="40" y="130" width="60" height="30" as="geometry" />
        </mxCell>
        <mxCell id="IynYQnoSh6YkQn9j_BnH-59" value="1" style="rounded=1;whiteSpace=wrap;html=1;" vertex="1" parent="1">
          <mxGeometry x="460" y="80" width="30" height="20" as="geometry" />
        </mxCell>
        <mxCell id="IynYQnoSh6YkQn9j_BnH-60" value="2" style="rounded=1;whiteSpace=wrap;html=1;" vertex="1" parent="1">
          <mxGeometry x="540" y="80" width="30" height="20" as="geometry" />
        </mxCell>
        <mxCell id="IynYQnoSh6YkQn9j_BnH-61" value="4" style="rounded=1;whiteSpace=wrap;html=1;" vertex="1" parent="1">
          <mxGeometry x="210" y="80" width="30" height="20" as="geometry" />
        </mxCell>
        <mxCell id="IynYQnoSh6YkQn9j_BnH-62" value="3" style="rounded=1;whiteSpace=wrap;html=1;" vertex="1" parent="1">
          <mxGeometry x="120" y="80" width="30" height="20" as="geometry" />
        </mxCell>
        <mxCell id="IynYQnoSh6YkQn9j_BnH-63" value="Q intervalo (kW)" style="text;html=1;strokeColor=none;fillColor=none;align=center;verticalAlign=middle;whiteSpace=wrap;rounded=0;" vertex="1" parent="1">
          <mxGeometry x="630" y="75" width="70" height="30" as="geometry" />
        </mxCell>
        <mxCell id="IynYQnoSh6YkQn9j_BnH-64" value="" style="endArrow=none;html=1;rounded=0;" edge="1" parent="1">
          <mxGeometry width="50" height="50" relative="1" as="geometry">
            <mxPoint x="620" y="174.5" as="sourcePoint" />
            <mxPoint x="720" y="174.5" as="targetPoint" />
          </mxGeometry>
        </mxCell>
        <mxCell id="IynYQnoSh6YkQn9j_BnH-65" value="" style="endArrow=none;html=1;rounded=0;" edge="1" parent="1">
          <mxGeometry width="50" height="50" relative="1" as="geometry">
            <mxPoint x="620" y="510" as="sourcePoint" />
            <mxPoint x="620" y="80" as="targetPoint" />
          </mxGeometry>
        </mxCell>
        <mxCell id="IynYQnoSh6YkQn9j_BnH-67" value="" style="endArrow=none;html=1;rounded=0;" edge="1" parent="1">
          <mxGeometry width="50" height="50" relative="1" as="geometry">
            <mxPoint x="620" y="114.5" as="sourcePoint" />
            <mxPoint x="720" y="114.5" as="targetPoint" />
          </mxGeometry>
        </mxCell>
        <mxCell id="IynYQnoSh6YkQn9j_BnH-68" value="-71,33 kW" style="text;html=1;strokeColor=none;fillColor=none;align=center;verticalAlign=middle;whiteSpace=wrap;rounded=0;" vertex="1" parent="1">
          <mxGeometry x="635" y="130" width="60" height="30" as="geometry" />
        </mxCell>
        <mxCell id="IynYQnoSh6YkQn9j_BnH-69" value="195,83 kW" style="text;html=1;strokeColor=none;fillColor=none;align=center;verticalAlign=middle;whiteSpace=wrap;rounded=0;" vertex="1" parent="1">
          <mxGeometry x="630" y="200" width="80" height="30" as="geometry" />
        </mxCell>
        <mxCell id="IynYQnoSh6YkQn9j_BnH-70" value="" style="endArrow=none;html=1;rounded=0;" edge="1" parent="1">
          <mxGeometry width="50" height="50" relative="1" as="geometry">
            <mxPoint x="620" y="244.5" as="sourcePoint" />
            <mxPoint x="720" y="244.5" as="targetPoint" />
          </mxGeometry>
        </mxCell>
        <mxCell id="IynYQnoSh6YkQn9j_BnH-71" value="" style="endArrow=none;html=1;rounded=0;" edge="1" parent="1">
          <mxGeometry width="50" height="50" relative="1" as="geometry">
            <mxPoint x="620" y="284.5" as="sourcePoint" />
            <mxPoint x="720" y="284.5" as="targetPoint" />
          </mxGeometry>
        </mxCell>
        <mxCell id="IynYQnoSh6YkQn9j_BnH-72" value="" style="endArrow=none;html=1;rounded=0;" edge="1" parent="1">
          <mxGeometry width="50" height="50" relative="1" as="geometry">
            <mxPoint x="620" y="350" as="sourcePoint" />
            <mxPoint x="720" y="350" as="targetPoint" />
          </mxGeometry>
        </mxCell>
        <mxCell id="IynYQnoSh6YkQn9j_BnH-73" value="" style="endArrow=none;html=1;rounded=0;" edge="1" parent="1">
          <mxGeometry width="50" height="50" relative="1" as="geometry">
            <mxPoint x="620" y="394.5" as="sourcePoint" />
            <mxPoint x="720" y="394.5" as="targetPoint" />
          </mxGeometry>
        </mxCell>
        <mxCell id="IynYQnoSh6YkQn9j_BnH-74" value="" style="endArrow=none;html=1;rounded=0;" edge="1" parent="1">
          <mxGeometry width="50" height="50" relative="1" as="geometry">
            <mxPoint x="620" y="454.5" as="sourcePoint" />
            <mxPoint x="720" y="454.5" as="targetPoint" />
          </mxGeometry>
        </mxCell>
        <mxCell id="IynYQnoSh6YkQn9j_BnH-75" value="" style="endArrow=none;html=1;rounded=0;" edge="1" parent="1">
          <mxGeometry width="50" height="50" relative="1" as="geometry">
            <mxPoint x="620" y="510" as="sourcePoint" />
            <mxPoint x="720" y="510" as="targetPoint" />
          </mxGeometry>
        </mxCell>
        <mxCell id="IynYQnoSh6YkQn9j_BnH-77" value="-17,53 kW" style="text;html=1;strokeColor=none;fillColor=none;align=center;verticalAlign=middle;whiteSpace=wrap;rounded=0;" vertex="1" parent="1">
          <mxGeometry x="630" y="250" width="80" height="30" as="geometry" />
        </mxCell>
        <mxCell id="IynYQnoSh6YkQn9j_BnH-78" value="69,59 kW" style="text;html=1;strokeColor=none;fillColor=none;align=center;verticalAlign=middle;whiteSpace=wrap;rounded=0;" vertex="1" parent="1">
          <mxGeometry x="630" y="300" width="80" height="30" as="geometry" />
        </mxCell>
        <mxCell id="IynYQnoSh6YkQn9j_BnH-79" value="-33,35 kW" style="text;html=1;strokeColor=none;fillColor=none;align=center;verticalAlign=middle;whiteSpace=wrap;rounded=0;" vertex="1" parent="1">
          <mxGeometry x="635" y="360" width="80" height="30" as="geometry" />
        </mxCell>
        <mxCell id="IynYQnoSh6YkQn9j_BnH-80" value="20,94 kW" style="text;html=1;strokeColor=none;fillColor=none;align=center;verticalAlign=middle;whiteSpace=wrap;rounded=0;" vertex="1" parent="1">
          <mxGeometry x="635" y="410" width="80" height="30" as="geometry" />
        </mxCell>
        <mxCell id="IynYQnoSh6YkQn9j_BnH-81" value="-98,80 kW" style="text;html=1;strokeColor=none;fillColor=none;align=center;verticalAlign=middle;whiteSpace=wrap;rounded=0;" vertex="1" parent="1">
          <mxGeometry x="635" y="470" width="80" height="30" as="geometry" />
        </mxCell>
        <mxCell id="IynYQnoSh6YkQn9j_BnH-82" value="" style="endArrow=none;html=1;rounded=0;" edge="1" parent="1">
          <mxGeometry width="50" height="50" relative="1" as="geometry">
            <mxPoint x="720" y="510" as="sourcePoint" />
            <mxPoint x="720" y="80" as="targetPoint" />
          </mxGeometry>
        </mxCell>
        <mxCell id="IynYQnoSh6YkQn9j_BnH-83" value="" style="endArrow=none;html=1;rounded=0;" edge="1" parent="1">
          <mxGeometry width="50" height="50" relative="1" as="geometry">
            <mxPoint x="720" y="114.5" as="sourcePoint" />
            <mxPoint x="820" y="114.5" as="targetPoint" />
          </mxGeometry>
        </mxCell>
        <mxCell id="IynYQnoSh6YkQn9j_BnH-84" value="Q acumulado (kW)" style="text;html=1;strokeColor=none;fillColor=none;align=center;verticalAlign=middle;whiteSpace=wrap;rounded=0;" vertex="1" parent="1">
          <mxGeometry x="730" y="75" width="80" height="30" as="geometry" />
        </mxCell>
        <mxCell id="IynYQnoSh6YkQn9j_BnH-85" value="" style="endArrow=none;html=1;rounded=0;" edge="1" parent="1">
          <mxGeometry width="50" height="50" relative="1" as="geometry">
            <mxPoint x="720" y="174.5" as="sourcePoint" />
            <mxPoint x="820" y="174.5" as="targetPoint" />
          </mxGeometry>
        </mxCell>
        <mxCell id="IynYQnoSh6YkQn9j_BnH-86" value="" style="endArrow=none;html=1;rounded=0;" edge="1" parent="1">
          <mxGeometry width="50" height="50" relative="1" as="geometry">
            <mxPoint x="720" y="244.5" as="sourcePoint" />
            <mxPoint x="820" y="244.5" as="targetPoint" />
          </mxGeometry>
        </mxCell>
        <mxCell id="IynYQnoSh6YkQn9j_BnH-87" value="" style="endArrow=none;html=1;rounded=0;" edge="1" parent="1">
          <mxGeometry width="50" height="50" relative="1" as="geometry">
            <mxPoint x="720" y="284.5" as="sourcePoint" />
            <mxPoint x="820" y="284.5" as="targetPoint" />
          </mxGeometry>
        </mxCell>
        <mxCell id="IynYQnoSh6YkQn9j_BnH-88" value="" style="endArrow=none;html=1;rounded=0;" edge="1" parent="1">
          <mxGeometry width="50" height="50" relative="1" as="geometry">
            <mxPoint x="720" y="350" as="sourcePoint" />
            <mxPoint x="820" y="350" as="targetPoint" />
          </mxGeometry>
        </mxCell>
        <mxCell id="IynYQnoSh6YkQn9j_BnH-89" value="" style="endArrow=none;html=1;rounded=0;" edge="1" parent="1">
          <mxGeometry width="50" height="50" relative="1" as="geometry">
            <mxPoint x="720" y="394.5" as="sourcePoint" />
            <mxPoint x="820" y="394.5" as="targetPoint" />
          </mxGeometry>
        </mxCell>
        <mxCell id="IynYQnoSh6YkQn9j_BnH-90" value="" style="endArrow=none;html=1;rounded=0;" edge="1" parent="1">
          <mxGeometry width="50" height="50" relative="1" as="geometry">
            <mxPoint x="720" y="454.5" as="sourcePoint" />
            <mxPoint x="820" y="454.5" as="targetPoint" />
          </mxGeometry>
        </mxCell>
        <mxCell id="IynYQnoSh6YkQn9j_BnH-91" value="" style="endArrow=none;html=1;rounded=0;" edge="1" parent="1">
          <mxGeometry width="50" height="50" relative="1" as="geometry">
            <mxPoint x="720" y="510" as="sourcePoint" />
            <mxPoint x="820" y="510" as="targetPoint" />
          </mxGeometry>
        </mxCell>
        <mxCell id="IynYQnoSh6YkQn9j_BnH-92" value="-71,33 kW" style="text;html=1;strokeColor=none;fillColor=none;align=center;verticalAlign=middle;whiteSpace=wrap;rounded=0;" vertex="1" parent="1">
          <mxGeometry x="740" y="130" width="60" height="30" as="geometry" />
        </mxCell>
        <mxCell id="IynYQnoSh6YkQn9j_BnH-93" value="195,83 kW" style="text;html=1;strokeColor=none;fillColor=none;align=center;verticalAlign=middle;whiteSpace=wrap;rounded=0;" vertex="1" parent="1">
          <mxGeometry x="730" y="200" width="80" height="30" as="geometry" />
        </mxCell>
        <mxCell id="IynYQnoSh6YkQn9j_BnH-94" value="178,30 kW" style="text;html=1;strokeColor=none;fillColor=none;align=center;verticalAlign=middle;whiteSpace=wrap;rounded=0;" vertex="1" parent="1">
          <mxGeometry x="730" y="250" width="80" height="30" as="geometry" />
        </mxCell>
        <mxCell id="IynYQnoSh6YkQn9j_BnH-95" value="247,90 kW" style="text;html=1;strokeColor=none;fillColor=none;align=center;verticalAlign=middle;whiteSpace=wrap;rounded=0;" vertex="1" parent="1">
          <mxGeometry x="730" y="310" width="80" height="30" as="geometry" />
        </mxCell>
        <mxCell id="IynYQnoSh6YkQn9j_BnH-96" value="214,54 kW" style="text;html=1;strokeColor=none;fillColor=none;align=center;verticalAlign=middle;whiteSpace=wrap;rounded=0;" vertex="1" parent="1">
          <mxGeometry x="730" y="360" width="80" height="30" as="geometry" />
        </mxCell>
        <mxCell id="IynYQnoSh6YkQn9j_BnH-97" value="235,49 kW" style="text;html=1;strokeColor=none;fillColor=none;align=center;verticalAlign=middle;whiteSpace=wrap;rounded=0;" vertex="1" parent="1">
          <mxGeometry x="730" y="410" width="80" height="30" as="geometry" />
        </mxCell>
        <mxCell id="IynYQnoSh6YkQn9j_BnH-98" value="136,69 kW" style="text;html=1;strokeColor=none;fillColor=none;align=center;verticalAlign=middle;whiteSpace=wrap;rounded=0;" vertex="1" parent="1">
          <mxGeometry x="730" y="470" width="80" height="30" as="geometry" />
        </mxCell>
      </root>
    </mxGraphModel>
  </diagram>
</mxfile>
